PathFileType	4	(X/Y/Z)	E:\Qualisys_Data\Carbon_Farble_Plate\Data\Amateur_Runner\S14\T2\S14T2V23_c3d.trc
DataRate	CameraRate	NumFrames	NumMarkers	Units	OrigDataRate	OrigDataStartFrame	OrigNumFrames
200.000000	200.000000	4	39	mm	200.000000	82	330
Frame#	Time	LSHO			RSHO			LICST			RICST			LASIS			LHEEL			RASIS			LTROC			RTROC			SACR			LTH1			LSK4			LTH2			LTH3			RHM5			LSK2			LTH4			RTH1			LTOE			RTH2			RTH3			RTH4			LLEP			RLEP			LSK1			LSK3			RSK1			LHM5			RSK2			LFT1			RSK3			RSK4			LLME			RLME			RTOE			RHEEL			RFT1			RFT2			LFT2			
		X1	Y1	Z1	X2	Y2	Z2	X3	Y3	Z3	X4	Y4	Z4	X5	Y5	Z5	X6	Y6	Z6	X7	Y7	Z7	X8	Y8	Z8	X9	Y9	Z9	X10	Y10	Z10	X11	Y11	Z11	X12	Y12	Z12	X13	Y13	Z13	X14	Y14	Z14	X15	Y15	Z15	X16	Y16	Z16	X17	Y17	Z17	X18	Y18	Z18	X19	Y19	Z19	X20	Y20	Z20	X21	Y21	Z21	X22	Y22	Z22	X23	Y23	Z23	X24	Y24	Z24	X25	Y25	Z25	X26	Y26	Z26	X27	Y27	Z27	X28	Y28	Z28	X29	Y29	Z29	X30	Y30	Z30	X31	Y31	Z31	X32	Y32	Z32	X33	Y33	Z33	X34	Y34	Z34	X35	Y35	Z35	X36	Y36	Z36	X37	Y37	Z37	X38	Y38	Z38	X39	Y39	Z39	

83	0.41	-2039.607666015625	1455.378295898438	-536.7227172851562	-1944.097412109375	1445.347290039062	-255.5802612304688	-2056.69140625	1006.238647460938	-495.3837585449219	-2020.1572265625	1003.5869140625	-223.6657867431641	-2013.9970703125	955.0185546875	-471.3148193359375	-1852.697509765625	106.8324737548828	-383.076904296875	-2004.666381835938	955.5388793945312	-239.9003448486328	-2131.87939453125	893.4194946289062	-522.0484008789062	-2173.382080078125	914.4884033203124	-187.5424499511719	-2176.954833984375	1015.820861816406	-359.1864318847656	-1969.785034179688	690.7708129882812	-519.332275390625	-1912.533081054688	324.5390014648438	-466.5982971191406	-2035.763305664062	658.246337890625	-491.0159606933594	-1914.867065429688	611.1478271484375	-494.1188049316406	-2705.559814453125	246.2328491210938	-195.9577789306641	-1936.22119140625	420.3127136230469	-481.4383850097656	-1985.260986328125	576.9866333007812	-472.7652587890625	-2160.5771484375	674.7146606445312	-186.8125610351562	-1620.69384765625	212.0083465576172	-439.8690185546875	-2228.31396484375	716.712646484375	-181.5728454589844	-2208.41943359375	588.6177978515625	-209.8274536132812	-2281.51025390625	631.8705444335938	-200.3137664794922	-1917.27001953125	527.3206787109375	-485.07373046875	-2304.562255859375	560.1588745117188	-204.7655639648438	-1856.208374023438	439.8065795898438	-481.9969787597656	-1833.30517578125	341.3540954589844	-471.95361328125	-2395.45947265625	474.8351440429688	-200.7191162109375	-1676.901245117188	157.6231231689453	-493.1878051757812	-2441.029541015625	547.1942749023438	-208.3212280273438	-1828.886962890625	87.64720916748047	-365.3539428710938	-2485.801513671875	423.9884033203125	-212.3269653320312	-2520.623291015625	494.3709716796875	-220.5803833007812	-1817.394775390625	157.439208984375	-451.2306213378906	-2651.30859375	378.4422912597656	-235.1474456787109	-2678.4296875	161.9757843017578	-242.8352355957031	-2673.642578125	419.1431884765625	-297.9025573730469	-2699.376220703125	396.5543823242188	-327.5065002441406	-2706.13623046875	418.804443359375	-277.5793762207031	-1839.540283203125	78.5411605834961	-418.2699584960938
84	0.415	-2018.308715820312	1452.647583007812	-538.651123046875	-1922.196899414062	1443.688354492188	-257.3395080566406	-2035.37646484375	1003.438049316406	-495.3733215332031	-1999.541625976562	1001.138671875	-224.0537567138672	-1992.264892578125	952.5400390625	-471.7228393554688	-1825.503295898438	104.89599609375	-384.2153015136719	-1982.667602539062	954.34033203125	-240.2726898193359	-2111.437744140625	891.0200805664062	-522.2219848632812	-2150.968505859375	912.395751953125	-187.5595550537109	-2156.298583984375	1013.551513671875	-359.8760986328125	-1951.885498046875	686.0870971679688	-522.842041015625	-1888.9052734375	320.8009948730469	-466.6285400390625	-2017.114868164062	654.9556274414062	-491.48388671875	-1896.109619140625	606.5758056640625	-495.8059692382812	-2688.84814453125	252.0457611083984	-196.651123046875	-1914.73046875	416.9740295410156	-481.4264221191406	-1965.968994140625	573.5364379882812	-472.3917541503906	-2138.048828125	672.4666137695312	-188.0937957763672	-1595.077026367188	214.3698425292969	-441.2263488769531	-2204.89501953125	713.8339233398438	-180.8164367675781	-2185.10888671875	586.6668090820312	-210.3036804199219	-2258.663330078125	629.3721313476562	-200.9609069824219	-1897.5302734375	523.90625	-485.705322265625	-2282.549560546875	558.0946044921875	-205.5635833740234	-1834.961303710938	437.6828918457031	-482.8558654785156	-1810.08935546875	339.8614807128906	-472.8060913085938	-2373.880615234375	474.4182739257812	-201.0247497558594	-1650.55908203125	158.3298187255859	-494.4466857910156	-2418.485595703125	547.2273559570312	-208.7984313964844	-1800.511596679688	85.7029800415039	-365.5942993164062	-2464.67529296875	425.2039184570312	-213.6883239746094	-2499.38818359375	496.4456176757812	-222.4652099609375	-1791.150024414062	156.2881622314453	-451.8528747558594	-2630.849365234375	382.2736206054688	-237.0648651123047	-2661.8759765625	167.0476837158203	-243.2849884033203	-2652.2138671875	422.8597717285156	-300.2378540039062	-2678.927978515625	400.9816589355469	-330.0863647460938	-2685.341796875	423.6692199707031	-280.4091186523438	-1811.6591796875	77.04501342773438	-419.3429565429688
85	0.42	-1997.029907226562	1449.676147460938	-540.4746704101562	-1900.368896484375	1441.458251953125	-259.3097229003906	-2014.33056640625	1000.959106445312	-495.9661254882812	-1978.801635742188	999.4876098632812	-224.7657012939453	-1970.716064453125	950.5802001953124	-471.9644470214844	-1799.5810546875	102.1728820800781	-384.2277526855469	-1961.619384765625	951.7633666992188	-241.0074768066406	-2090.113525390625	887.8433837890625	-522.0519409179688	-2129.62841796875	909.9028930664062	-187.5423889160156	-2134.887451171875	1011.020568847656	-360.0707397460938	-1933.302856445312	681.6962890625	-525.7109985351562	-1866.52294921875	317.9708251953125	-466.524169921875	-1996.958618164062	651.2840576171875	-489.948486328125	-1876.597778320312	602.50634765625	-496.8804016113281	-2670.89501953125	257.0554809570312	-198.0896453857422	-1893.507202148438	413.5944519042969	-481.7978210449219	-1947.322998046875	570.3140869140625	-472.0274047851562	-2114.8251953125	670.2044677734375	-188.4280700683594	-1572.562622070312	215.5543365478516	-443.8903198242188	-2182.332763671875	710.6885986328125	-180.9467468261719	-2163.376708984375	583.953857421875	-211.6400451660156	-2235.821533203125	626.078125	-201.0582580566406	-1877.149047851562	519.8364868164062	-485.9847412109375	-2258.379150390625	555.388671875	-206.2313537597656	-1814.149658203125	434.8825378417969	-483.271728515625	-1788.1787109375	337.7140197753906	-472.8431701660156	-2351.75	473.4158935546875	-201.9175109863281	-1627.509643554688	159.7747497558594	-495.8439331054688	-2395.497802734375	547.0060424804688	-209.8247222900391	-1773.449829101562	83.62519073486328	-366.1358032226562	-2443.92333984375	425.2671203613281	-214.5731048583984	-2477.527099609375	496.7462463378906	-223.513427734375	-1766.468872070312	154.629150390625	-452.4925842285156	-2613.810302734375	387.0611572265625	-238.3533477783203	-2645.46435546875	171.4189605712891	-243.9862060546875	-2632.345458984375	427.002197265625	-303.5131225585938	-2658.032470703125	405.1888427734375	-332.4344787597656	-2664.074462890625	428.4593811035156	-282.8464050292969	-1785.79296875	74.88111114501953	-419.8964233398438
86	0.425	-1975.981079101562	1446.250366210938	-542.9102783203125	-1878.722534179688	1439.501708984375	-260.6443786621094	-1993.746459960938	998.3878784179688	-497.0030517578125	-1957.131958007812	998.0980224609376	-224.9030303955078	-1949.23583984375	947.9555053710938	-472.3732604980469	-1775.436645507812	100.4724044799805	-384.2266540527344	-1940.880004882812	950.9390258789062	-242.2008972167969	-2068.709716796875	884.5043334960938	-522.236572265625	-2107.559814453125	907.2714233398438	-187.2647705078125	-2113.852294921875	1008.440612792969	-360.5118408203125	-1914.662231445312	677.31982421875	-527.9203491210938	-1844.62060546875	315.1522521972656	-466.979736328125	-1977.957885742188	647.9656982421875	-490.1409912109375	-1858.52099609375	600.08642578125	-498.2594604492188	-2652.26025390625	262.5805053710938	-200.3697357177734	-1872.595703125	410.404052734375	-481.904052734375	-1927.296630859375	566.4970703125	-471.7318420410156	-2091.60400390625	667.3341064453125	-189.4302825927734	-1549.473388671875	215.1104431152344	-445.0478820800781	-2160.7578125	707.9369506835938	-182.67919921875	-2139.289794921875	580.9882202148438	-211.9135131835938	-2212.5615234375	622.4072875976562	-201.3126983642578	-1858.246948242188	517.0477294921875	-486.5246276855469	-2234.817138671875	551.7867431640625	-206.6966552734375	-1793.051025390625	432.5575256347656	-483.577880859375	-1766.098266601562	335.6036987304688	-473.4634094238281	-2330.43603515625	470.2779541015625	-203.3890686035156	-1604.833862304688	159.1498870849609	-497.2469482421875	-2371.599853515625	545.4835205078125	-210.1686401367188	-1747.964233398438	82.2384262084961	-365.8765258789062	-2422.777099609375	425.741943359375	-216.1856994628906	-2453.76171875	497.8194580078125	-224.0668487548828	-1743.147827148438	152.4003753662109	-452.2361145019531	-2592.915771484375	390.87255859375	-240.63232421875	-2627.8876953125	175.8165588378906	-245.3558044433594	-2610.680908203125	430.7796936035156	-305.9385070800781	-2636.811279296875	409.2756042480469	-335.0109558105469	-2642.30517578125	432.5763549804688	-285.0972595214844	-1761.857177734375	72.92616271972656	-419.6959838867188
